# xmcd
#
# Track frame offsets:
#	150
#	10780
#	21037
#	30472
#	43440
#	53607
#	65405
#	76212
#	87417
#	98275
#	108510
#	121315
#	132315
#	142460
#	154057
#	164715
#	175745
#	186917
#	197800
#	208647
#	219682
#	228915
#	238820
#	251417
#	264080
#	272432
#	287442
#	299485
#	310670
#	320710
#	332380
#	346507
#
# Disc length: 4744 seconds
#
# Revision: 1
# Processed by: cddbd v1.5PL3 Copyright (c) Steve Scherf et al.
# Submitted via: audiograbber 1.80
#
DISCID=c8128620
DTITLE=mitchell torok - Mexican Joe In The Caribbean disc 2
DYEAR=1900
DGENRE=
TTITLE0=Marching My Blues Away 
TTITLE1=Country And Western (That's For Me) 
TTITLE2=Red Light, Green Light 
TTITLE3=No Money Down 
TTITLE4=It'll Be All Right 
TTITLE5=A Woman By Your Side 
TTITLE6=I Wish I Was A Little Bit Younger 
TTITLE7=Memories Of You Haunting Me Night And Day 
TTITLE8=When Mexico Gave Up The Rhumba 
TTITLE9=Go Ahead And Be A Fool 
TTITLE10=Drink Up And Go Home 
TTITLE11=Take This Heart 
TTITLE12=Pledge Of Love 
TTITLE13=Another Love From Now 
TTITLE14=What's Behind The Strange Door 
TTITLE15=You Never Belonged To Me 
TTITLE16=Sweet Revenge 
TTITLE17=Love Me Like You Mean It 
TTITLE18=You Win Again 
TTITLE19=I Can't Help It (If I'm Still In Love With U) 
TTITLE20=Love Your Touch (Love You So Much) 
TTITLE21=Two Words (True Love) 
TTITLE22=You're Tempting Me 
TTITLE23=You Can't Keep A Good Man Down 
TTITLE24=Honolulu Baby 
TTITLE25=Filipino Baby 
TTITLE26=How Much (Do I Love You) 
TTITLE27=Be Kind To Me 
TTITLE28=These Things I Hold Dear 
TTITLE29=A Date With A Teardrop 
TTITLE30=All Over Again, Again 
TTITLE31=You Can't Get There From Here 
EXTD=
EXTT0=
EXTT1=
EXTT2=
EXTT3=
EXTT4=
EXTT5=
EXTT6=
EXTT7=
EXTT8=
EXTT9=
EXTT10=
EXTT11=
EXTT12=
EXTT13=
EXTT14=
EXTT15=
EXTT16=
EXTT17=
EXTT18=
EXTT19=
EXTT20=
EXTT21=
EXTT22=
EXTT23=
EXTT24=
EXTT25=
EXTT26=
EXTT27=
EXTT28=
EXTT29=
EXTT30=
EXTT31=
PLAYORDER=
